# xmcd
#
# Track frame offsets: 
#        150
#        23969
#        47387
#        67516
#        95819
#        118512
#        136226
#        159248
#
# Disc length: 2615 seconds
#
# Revision: 0
# Processed by: cddbd v1.5.2PL0 Copyright (c) Steve Scherf et al.
# Submitted via: ExactAudioCopy v0.99pb4
#
DISCID=590a3508
DTITLE=Dzem - Cegla
DYEAR=1985
DGENRE=Blues
TTITLE0=Czerwony Jak Cegla
TTITLE1=Whisky
TTITLE2=Nieudany Skok
TTITLE3=Ballada O Dziwnym Malarzu
TTITLE4=Jesiony
TTITLE5=Powial Boczny Wiatr
TTITLE6=Kim Jestem - Jestem Sobie
TTITLE7=Oh, Slodka
EXTD=
EXTT0=
EXTT1=
EXTT2=
EXTT3=
EXTT4=
EXTT5=
EXTT6=
EXTT7=
PLAYORDER=
